<?xml version="1.0" standalone="no"?>
<!DOCTYPE svg PUBLIC "-//W3C//DTD SVG 20010904//EN"
 "http://www.w3.org/TR/2001/REC-SVG-20010904/DTD/svg10.dtd">
<svg version="1.0" xmlns="http://www.w3.org/2000/svg"
 width="227.000000pt" height="65.000000pt" viewBox="0 0 227.000000 65.000000"
 preserveAspectRatio="xMidYMid meet">
<metadata>
Created by potrace 1.10, written by Peter Selinger 2001-2011
</metadata>
<g transform="translate(0.000000,65.000000) scale(0.100000,-0.100000)"
fill="#000000" stroke="none">
<path d="M40 570 c-11 -11 -20 -28 -20 -38 0 -24 218 -404 260 -454 17 -21 37
-38 44 -38 19 0 46 33 96 117 45 76 70 100 70 68 0 -28 29 -80 63 -115 45 -46
101 -70 170 -70 68 0 120 19 163 61 l32 31 18 -39 c18 -36 22 -38 70 -41 72
-4 86 14 92 123 3 64 9 88 22 100 32 29 54 15 61 -37 18 -124 101 -198 224
-198 66 0 119 20 162 62 l32 31 40 -35 c94 -81 243 -79 329 4 22 22 32 27 32
16 0 -8 9 -27 21 -42 16 -21 29 -26 64 -26 35 0 48 5 64 26 20 25 21 39 21
246 l0 219 -25 24 c-36 37 -86 34 -119 -6 -23 -27 -26 -39 -26 -105 0 -41 -2
-74 -5 -74 -4 0 -22 16 -42 35 -86 83 -235 82 -325 -3 l-27 -25 -36 31 c-51
46 -136 68 -202 54 -29 -6 -69 -22 -90 -37 l-38 -26 -21 26 c-18 23 -27 26
-85 25 -35 -1 -82 1 -104 5 -33 5 -45 3 -68 -15 -15 -12 -27 -30 -27 -40 0
-28 -15 -32 -36 -9 -57 63 -163 91 -246 66 -27 -8 -48 -12 -48 -7 0 4 7 25 16
46 16 38 16 39 -11 61 -34 29 -92 31 -128 3 -14 -11 -53 -68 -87 -126 -50 -85
-64 -103 -75 -94 -8 7 -36 50 -62 97 -65 117 -92 143 -149 143 -31 0 -50 -6
-64 -20z m196 -171 l87 -151 48 84 c27 45 65 113 86 150 l38 68 53 0 c28 0 52
-2 52 -4 0 -2 -24 -43 -53 -92 -29 -49 -91 -155 -137 -236 -47 -81 -88 -144
-91 -140 -10 10 -269 460 -269 467 0 3 22 5 49 5 l50 0 87 -151z m1894 -82 l0
-232 -45 3 -45 4 0 229 0 229 45 0 45 0 0 -233z m-1314 97 c50 -24 85 -81 87
-141 l2 -48 -145 -5 -145 -5 36 -27 c41 -32 84 -36 135 -12 32 15 35 15 70 -7
l36 -22 -23 -19 c-107 -86 -284 -51 -328 65 -15 39 -14 101 3 140 40 94 166
131 272 81z m643 15 c30 -6 64 -23 86 -42 l37 -32 -42 -24 -41 -23 -25 23
c-28 26 -79 30 -118 10 -54 -29 -59 -121 -8 -162 34 -26 107 -22 132 9 16 19
17 19 53 0 20 -10 37 -22 37 -26 0 -14 -54 -60 -83 -71 -49 -19 -130 -13 -177
12 -130 69 -114 273 25 322 49 17 61 18 124 4z m393 1 c77 -22 128 -87 128
-165 l0 -46 -140 3 c-77 2 -140 0 -140 -3 0 -3 11 -16 24 -28 33 -31 98 -39
139 -16 31 17 33 16 70 -5 l38 -22 -42 -31 c-76 -56 -208 -48 -273 17 -68 69
-68 181 2 251 52 51 116 66 194 45z m-797 -47 l-7 -48 21 33 c20 31 72 62 106
62 11 0 15 -12 15 -50 l0 -50 -39 0 c-28 0 -45 -7 -65 -26 -24 -25 -26 -33
-26 -120 l0 -94 -47 0 -48 0 0 170 0 170 48 0 48 0 -6 -47z m404 -89 c16 -12
34 -15 62 -10 l39 6 0 -34 c0 -35 0 -35 -31 -24 -26 9 -37 7 -70 -12 -48 -26
-85 -21 -101 15 -9 19 -7 29 6 50 19 29 60 33 95 9z"/>
<path d="M670 347 c-13 -7 -30 -22 -38 -34 l-14 -23 96 0 c53 0 96 4 96 8 0 5
-11 19 -24 31 -28 26 -83 35 -116 18z"/>
<path d="M1741 338 c-61 -41 -53 -48 54 -48 90 0 95 1 86 18 -15 28 -32 40
-71 47 -27 5 -43 1 -69 -17z"/>
<path d="M0 49 c0 -20 21 -49 35 -49 19 0 19 10 -1 38 -16 23 -34 29 -34 11z"/>
</g>
</svg>
